<svg aria-hidden="true" style="position:absolute;width:0;height:0" xmlns="http://www.w3.org/2000/svg" overflow="hidden">
    <defs>
        <symbol id="icon-icon_film" viewBox="0 0 32 32"><path stroke-linejoin="round" stroke-linecap="round" stroke-width="2.667" d="M26.427 2.667H5.574a2.907 2.907 0 0 0-2.907 2.907v20.853a2.907 2.907 0 0 0 2.907 2.907h20.853a2.907 2.907 0 0 0 2.907-2.907V5.574a2.907 2.907 0 0 0-2.907-2.907zM9.333 2.667v26.667M22.667 2.667v26.667M2.667 16h26.667M2.667 9.333h6.667M2.667 22.667h6.667M22.667 22.667h6.667M22.667 9.333h6.667" /></symbol>
        <symbol id="icon-icon_search" viewBox="0 0 32 32"><path stroke-linejoin="round" stroke-linecap="round" stroke-width="2.667" d="M14.667 25.333c5.891 0 10.667-4.776 10.667-10.667S20.558 3.999 14.667 3.999 4 8.775 4 14.666s4.776 10.667 10.667 10.667zM28 28.001l-5.8-5.8" /></symbol>
        <symbol id="icon-close" viewBox="0 0 32 32"><path d="M23.734 10.304l-1.504-1.504-5.963 5.962-5.962-5.962-1.504 1.504 5.962 5.962-5.962 5.963 1.504 1.504 5.962-5.963 5.963 5.963 1.504-1.504-5.963-5.963 5.963-5.962z"></path></symbol>
        <symbol id="chevron-up" viewBox="0 0 28 32"><path d="M15.061 8.158l12.146 12.146c0.586 0.586 0.586 1.536 0 2.121l-1.417 1.417c-0.585 0.585-1.533 0.586-2.119 0.003l-9.672-9.626-9.672 9.626c-0.586 0.583-1.534 0.582-2.119-0.003l-1.417-1.417c-0.586-0.586-0.586-1.536 0-2.121l12.146-12.146c0.586-0.586 1.536-0.586 2.121-0z"></path></symbol>
    </defs>
</svg>